<svg width="45" height="46" viewBox="0 0 45 46" fill="none" xmlns="http://www.w3.org/2000/svg">
<g id="material-symbols:shopping-cart-outline-rounded">
<path id="Vector" d="M12.9952 41.2903C11.977 41.2903 11.1056 40.9282 10.3811 40.2039C9.65538 39.4784 9.29251 38.6067 9.29251 37.5887C9.29251 36.5708 9.65538 35.699 10.3811 34.9735C11.1056 34.2492 11.977 33.8871 12.9952 33.8871C14.0135 33.8871 14.8848 34.2492 15.6093 34.9735C16.3351 35.699 16.6979 36.5708 16.6979 37.5887C16.6979 38.6067 16.3351 39.4784 15.6093 40.2039C14.8848 40.9282 14.0135 41.2903 12.9952 41.2903ZM31.5088 41.2903C30.4906 41.2903 29.6192 40.9282 28.8947 40.2039C28.169 39.4784 27.8061 38.6067 27.8061 37.5887C27.8061 36.5708 28.169 35.699 28.8947 34.9735C29.6192 34.2492 30.4906 33.8871 31.5088 33.8871C32.5271 33.8871 33.399 34.2492 34.1248 34.9735C34.8493 35.699 35.2115 36.5708 35.2115 37.5887C35.2115 38.6067 34.8493 39.4784 34.1248 40.2039C33.399 40.9282 32.5271 41.2903 31.5088 41.2903ZM11.4216 11.6774L15.8648 20.9315H28.8243L33.9156 11.6774H11.4216ZM12.9952 32.0363C11.6067 32.0363 10.5576 31.4268 9.84792 30.2077C9.13824 28.9899 9.10738 27.7794 9.75535 26.5764L12.2547 22.0419L5.5898 7.97581H3.69216C3.16761 7.97581 2.73562 7.79814 2.39621 7.44278C2.05679 7.08866 1.88708 6.6494 1.88708 6.12501C1.88708 5.60061 2.06482 5.16074 2.42028 4.80538C2.7745 4.45126 3.21389 4.2742 3.73844 4.2742H6.7469C7.08631 4.2742 7.4103 4.36674 7.71886 4.55182C8.02742 4.7369 8.25884 4.9991 8.41312 5.33841L9.66279 7.97581H36.9703C37.8034 7.97581 38.3743 8.28428 38.6828 8.90122C38.9914 9.51815 38.9759 10.1659 38.6365 10.8446L32.0642 22.6897C31.7248 23.3067 31.2774 23.7848 30.722 24.1241C30.1666 24.4634 29.534 24.6331 28.8243 24.6331H15.0317L12.9952 28.3347H33.4064C33.931 28.3347 34.363 28.5117 34.7024 28.8659C35.0418 29.2212 35.2115 29.6611 35.2115 30.1855C35.2115 30.7099 35.0338 31.1491 34.6783 31.5033C34.3241 31.8586 33.8847 32.0363 33.3602 32.0363H12.9952ZM15.8648 20.9315H28.8243H15.8648Z" fill="#333333"/>
</g>
</svg>
